<svg id="Layer_1" data-name="Layer 1" xmlns="http://www.w3.org/2000/svg" viewBox="0 0 300 93.364"><defs><style>.cls-1{fill:#fff;}.cls-2{fill:#1082c1;}</style></defs><title>IMPACT_Logo--Blue and White</title><rect class="cls-1" x="1.978" y="1.978" width="89.398" height="89.398"/><path class="cls-1" d="M225.715,16.305a19.035,19.035,0,0,1,16.03,8.48l8.945-6.71A31.363,31.363,0,0,0,225.714,6.052C208.193,6.052,194.3,19.38,194.3,36.53s13.891,30.481,31.412,30.481A31.369,31.369,0,0,0,250.69,54.993l-8.759-6.341a20,20,0,0,1-16.217,8.113,20.231,20.231,0,0,1,0-40.46Z"/><polygon class="cls-1" points="254.891 7.264 254.891 17.513 272.042 17.513 272.042 65.801 282.85 65.801 282.85 17.513 300 17.513 300 7.264 254.891 7.264"/><path class="cls-1" d="M167.1,7.264,141.619,65.8H153.17l4.476-11h24.8l4.471,11h11.652L173.772,7.264Zm-5.536,37.849,8.578-20.98,8.48,20.98Z"/><path class="cls-1" d="M150.586,27.3c0-11.463-8.022-20.037-21.069-20.037H101.652V65.8h10.812V47.348h17.053C142.564,47.348,150.586,38.767,150.586,27.3Zm-38.122,9.79V17.513h16.215c7.646,0,11.092,4.568,11.092,9.787s-3.446,9.79-11.092,9.79H112.464Z"/><path class="cls-2" d="M0,0V93.364H93.354V0ZM17,6.943a5.321,5.321,0,1,1-5.321,5.319A5.323,5.323,0,0,1,17,6.943Zm-4.767,14.4h9.539v44.4H12.232Zm34.6,66.613L14.7,72.25H78.983ZM81.312,65.89H70.67V30.3L55.719,45.805,40.767,30.3v35.6H30.127V7.09L55.718,32.955,81.312,7.09Z"/></svg>